PathFileType	4	(X/Y/Z)	C:\Users\WrightLab\Desktop\Jo\P3_12.trc
DataRate	CameraRate	NumFrames	NumMarkers	Units	OrigDataRate	OrigDataStartFrame	OrigNumFrames
100.00	100.00	       17	19	mm	100.00	1	       593
Frame#	Time	Headset_Front			Headset_Back			Headset_Left			Headset_Right			Left_Shoulder			Right_Shoulder			Sternum			C7			Left Elbow			Right Elbow			Left Wrist			Right Wrist			Left ASIS			Right ASIS			S2			Left Knee			Right Knee			Left Ankle			Right Ankle			
		X1	Y1	Z1	X2	Y2	Z2	X3	Y3	Z3	X4	Y4	Z4	X5	Y5	Z5	X6	Y6	Z6	X7	Y7	Z7	X8	Y8	Z8	X9	Y9	Z9	X10	Y10	Z10	X11	Y11	Z11	X12	Y12	Z12	X13	Y13	Z13	X14	Y14	Z14	X15	Y15	Z15	X16	Y16	Z16	X17	Y17	Z17	X18	Y18	Z18	X19	Y19	Z19	

1	0.000	2.95154	1515.47229	2181.70264	-27.87967	1673.41687	2507.43066							-220.13055	1380.50830	2482.59937	141.85852	1397.12122	2508.76270				-38.07095	1447.40881	2548.21777	-270.56610	1045.85315	2475.31494	219.77110	1050.02539	2531.53125	-234.41624	867.13947	2369.63013	222.35985	865.05127	2399.23096							-21.29073	999.13647	2631.16089				106.19058	493.00760	2514.54028	-156.50575	220.91551	2578.43750	91.33189	170.87195	2617.78613	
2	0.010	3.86836	1514.50769	2178.64624	-27.64464	1673.59045	2504.26709							-219.53728	1380.44385	2480.51611	142.95300	1396.86938	2505.84326				-37.63923	1447.41479	2545.17920	-270.00198	1046.20728	2472.86304	220.87361	1049.77515	2529.30859	-233.90312	867.85773	2364.67065	223.24933	863.99933	2398.57593							-20.54652	999.24988	2629.73779	-129.44040	495.40768	2371.73682	106.64115	492.69888	2514.26172	-154.19475	227.17010	2572.38086	91.36935	170.90248	2617.77856	
3	0.020	3.85995	1513.28003	2175.43115	-26.74601	1673.27771	2499.24658							-218.30833	1379.75317	2477.25806	143.81084	1396.44092	2502.57642				-36.71070	1446.98413	2541.78296	-268.81409	1045.94983	2469.46851	221.85536	1049.96008	2526.92407	-232.65793	868.15167	2360.26221	223.78104	863.53558	2397.78589							-19.94695	999.49719	2627.86060	-128.24281	498.80347	2360.39917	107.11002	492.67783	2513.47388	-151.61122	232.20450	2564.38794	91.37754	170.76498	2617.70142	
4	0.030	4.07713	1512.83264	2171.73828	-25.64679	1672.69238	2495.23975							-218.09529	1380.11230	2475.17090	144.25131	1396.06042	2499.06519				-35.56081	1447.27307	2538.67041	-268.07739	1045.57324	2466.31177	222.94913	1049.50769	2524.93286	-231.57848	868.92725	2356.48999	223.84129	862.84076	2395.86743							-19.07177	998.84418	2625.59570	-127.51902	502.18417	2350.49536	107.40827	492.61942	2513.21875	-149.64912	236.21452	2556.52100	91.42766	170.75206	2617.66284	
5	0.040	4.76855	1512.36902	2168.47363	-25.49754	1673.12476	2491.09302							-216.94672	1379.62561	2471.38892	144.93471	1396.21863	2495.97876				-35.12754	1447.17969	2536.33105	-267.40115	1045.20410	2462.20532	223.60527	1049.84937	2523.07397	-230.83192	870.06116	2350.47900	224.48376	862.30090	2393.60278							-18.67096	999.06750	2623.65308	-126.82828	504.94370	2340.89160	107.64258	491.87244	2511.97217	-147.07204	241.59984	2549.93872	91.48739	170.77719	2617.63843	
6	0.050	4.65437	1511.77771	2164.93091	-24.51840	1673.17175	2486.74512							-216.77460	1380.04785	2469.15527	145.52623	1396.02917	2492.62378				-34.46033	1446.97961	2531.90088	-266.86053	1045.29395	2459.14038	224.06192	1050.28113	2520.64795				225.41048	861.59460	2393.47729							-17.70979	999.32831	2621.31982	-126.33237	508.19650	2331.18677	108.18942	490.93906	2510.62964	-143.70427	244.98582	2542.13916	91.42682	170.68472	2617.62817	
7	0.060	4.90734	1511.18811	2161.25757	-24.24583	1672.60254	2482.20605							-216.08861	1379.76831	2466.06665	145.95868	1396.04602	2489.08130				-34.09332	1447.00818	2529.29419	-266.23312	1045.48401	2455.58862	224.81078	1049.89331	2517.18359				226.47711	860.65741	2392.51343							-17.45958	999.66705	2619.16943	-125.58195	510.87500	2324.52100	108.73820	491.08997	2509.61963	-141.99771	246.99759	2532.99878	91.17970	170.32195	2616.75903	
8	0.070	5.31014	1510.81262	2157.18994	-23.75470	1673.17310	2478.11426							-215.59924	1379.82776	2462.77197	146.58871	1396.09167	2485.72388				-33.28042	1447.48511	2525.93262	-265.67706	1045.80322	2452.41577	225.41652	1049.58374	2514.73340				226.85570	860.44318	2391.93140							-17.72204	999.72162	2616.94702	-125.49548	513.55518	2315.96289	109.23260	490.57706	2508.37622	-138.61917	248.88664	2523.77588	91.16501	170.42474	2616.82227	
9	0.080	5.01566	1510.27100	2153.17505	-23.10085	1672.69617	2473.05786							-215.20966	1379.51990	2459.58472	146.95871	1395.87402	2482.14966				-33.12529	1446.89685	2521.63818	-265.44708	1045.88818	2448.86743	225.75468	1050.67456	2512.68286				226.55331	860.64563	2386.92676							-17.39128	999.64490	2613.88428	-125.60068	516.49878	2308.17480	109.32933	490.46378	2507.81714	-136.19772	250.11136	2513.65308	91.15372	170.40822	2616.82080	
10	0.090	5.52302	1509.71069	2149.52100	-23.11316	1672.80969	2469.43726							-214.83873	1379.71228	2456.41895	147.29683	1396.27368	2478.36401				-32.54554	1447.14172	2518.41748	-265.24103	1046.36389	2445.07568	225.87753	1050.92749	2510.47168	-229.99641	875.44714	2326.44775	226.49229	861.23096	2383.62646							-16.81269	1000.01813	2611.45923	-125.36996	519.36652	2301.08740	109.36037	490.25198	2507.67993	-134.53883	248.31915	2500.83545	91.08927	170.53941	2616.40918	
11	0.100	5.00036	1509.72607	2145.03467	-22.51439	1672.54382	2464.02148							-214.47943	1379.80042	2452.92383	147.86809	1396.41602	2474.69800				-32.15941	1447.40112	2514.36646	-265.45761	1046.52771	2441.21655	226.42447	1050.51831	2506.61621	-229.89857	876.90918	2319.70264										-16.60662	1000.26416	2608.13867	-125.19518	521.83490	2294.54102	109.57625	490.37619	2506.39673	-132.14706	247.89096	2490.10327	91.01894	170.69196	2616.29712	
12	0.110	4.96254	1509.49146	2141.80859	-22.51280	1672.61780	2460.51611							-214.28055	1379.43591	2449.21655	147.90628	1395.95642	2470.75269				-32.20227	1447.40735	2510.77539	-265.24524	1046.14490	2436.96558	226.71854	1050.52856	2504.00562	-229.90956	878.38434	2313.47314	227.01797	859.09729	2380.30054							-16.67142	1000.10345	2604.98804	-125.25487	523.76160	2287.44482	108.72578	489.84720	2503.55273	-131.26765	245.16893	2476.45166	91.07652	170.70020	2616.26514	
13	0.120	4.64675	1509.55835	2137.02905	-22.04616	1672.07947	2455.03467							-213.62488	1379.06909	2445.15308	148.28966	1396.73694	2467.11157				-31.29391	1447.05713	2506.10034	-265.37216	1045.66748	2432.36841	226.74817	1051.40527	2501.84204	-230.20271	879.62384	2307.43823	226.93233	858.76324	2380.49658							-16.66166	1001.28900	2602.63306	-124.82836	525.90399	2283.06006	108.08212	489.65866	2502.27441	-128.82993	242.50002	2463.14551	90.63668	171.04630	2616.02710	
14	0.130	5.11143	1508.94165	2132.76392	-22.16312	1671.86243	2451.60840							-213.20622	1379.05920	2441.53979	148.54767	1396.53076	2462.41260				-31.54524	1447.55103	2502.16016	-266.53799	1044.05933	2425.63574	226.81964	1050.95642	2497.98657	-230.22948	880.90662	2301.30054	225.70784	860.51642	2371.98291							-16.34714	1001.02368	2598.87354	-124.71835	527.49078	2276.38013	108.25932	488.59558	2499.99463	-127.45160	238.72289	2449.62939	90.56862	171.13680	2615.80005	
15	0.140	4.36286	1508.57031	2128.10449	-22.14765	1671.27368	2446.46509							-212.81117	1378.82239	2437.45654	148.91422	1396.54907	2458.38550				-30.81075	1447.00818	2498.01050	-266.50500	1044.28882	2421.31396				-230.72049	882.04938	2294.79272	225.45215	859.87054	2372.50635							-16.28455	1000.89166	2595.52686	-124.42066	529.16132	2272.14551	108.18182	487.63556	2498.47485	-126.36400	233.74446	2433.05713	90.60886	171.33453	2615.13428	
16	0.150	4.10011	1508.36023	2124.75073	-22.12317	1670.83667	2442.42261							-212.50150	1378.67920	2433.52197	149.57471	1396.16760	2452.95752				-31.19601	1446.77124	2493.88281	-265.72729	1046.19995	2419.00220	227.39339	1051.38477	2491.80322	-231.16499	883.29553	2288.15039	224.85950	858.78168	2371.72803							-16.23092	1001.16559	2592.51025	-124.46696	530.12177	2264.28125	107.23051	487.85452	2495.44312	-125.92323	228.72653	2417.53540	90.50559	171.50729	2614.70581	
17	0.160	3.58433	1507.96838	2119.36157	-22.59951	1670.68689	2438.40381							-212.13249	1377.71887	2429.14429	149.49033	1396.66711	2449.39551				-30.31626	1446.68689	2488.86548	-265.49625	1046.32813	2414.33374	227.26422	1050.94958	2487.80615				224.34172	858.17993	2364.98560							-16.19973	1000.95831	2588.44434	-123.64623	528.99664	2260.32227	107.39825	487.06491	2491.87158	-125.75864	223.80690	2401.01538	90.46559	171.64735	2614.20239	
